<?xml version="1.0" encoding="UTF-8" standalone="no"?>
<!-- Created with Inkscape (http://www.inkscape.org/) -->

<svg
   xmlns:dc="http://purl.org/dc/elements/1.1/"
   xmlns:cc="http://creativecommons.org/ns#"
   xmlns:rdf="http://www.w3.org/1999/02/22-rdf-syntax-ns#"
   xmlns:svg="http://www.w3.org/2000/svg"
   xmlns="http://www.w3.org/2000/svg"
   xmlns:sodipodi="http://sodipodi.sourceforge.net/DTD/sodipodi-0.dtd"
   xmlns:inkscape="http://www.inkscape.org/namespaces/inkscape"
   width="600"
   height="630"
   id="svg2"
   version="1.1"
   inkscape:version="0.48.5 r10040"
   sodipodi:docname="Nuovo documento 1">
  <defs
     id="defs4" />
  <sodipodi:namedview
     id="base"
     pagecolor="#ffffff"
     bordercolor="#666666"
     borderopacity="1.0"
     inkscape:pageopacity="0.0"
     inkscape:pageshadow="2"
     inkscape:zoom="0.7"
     inkscape:cx="303.85373"
     inkscape:cy="235.24805"
     inkscape:document-units="px"
     inkscape:current-layer="layer1"
     showgrid="false"
     inkscape:window-width="1280"
     inkscape:window-height="958"
     inkscape:window-x="0"
     inkscape:window-y="27"
     inkscape:window-maximized="1" />
  <metadata
     id="metadata7">
    <rdf:RDF>
      <cc:Work
         rdf:about="">
        <dc:format>image/svg+xml</dc:format>
        <dc:type
           rdf:resource="http://purl.org/dc/dcmitype/StillImage" />
        <dc:title></dc:title>
      </cc:Work>
    </rdf:RDF>
  </metadata>
  <g
     inkscape:label="Livello 1"
     inkscape:groupmode="layer"
     id="layer1"
     transform="translate(0,-422.36218)">
    <g
       id="g3936"
       transform="matrix(0.79754203,0,0,0.79754203,3.1393451,439.15701)">
      <g
         id="g3933">
        <path
           style="fill:#000000"
           d="m -0.59174718,714.94841 c 0,-52.9099 0.27926,-56.39172 4.37499998,-54.54765 8.1321602,3.66148 17.5606702,1.84123 29.9502002,-5.78212 6.78506,-4.1749 21.80635,-11.73813 33.38064,-16.8072 11.57429,-5.06908 22.11291,-10.25803 23.41916,-11.53103 1.30625,-1.273 4.54793,-2.31452 7.20374,-2.31452 2.655797,0 15.087047,-5.21233 27.624997,-11.58293 34.84173,-20.67156 47.27509,-29.15408 72.14833,-69.66707 12.32871,-22.69665 9.76961,-82.95388 -4.40622,-103.75 -8.45835,-12.4085 -13.85561,-26.38685 -13.27754,-34.38748 0.27271,-3.77437 -0.77797,-9.21352 -2.33484,-12.087 -1.55688,-2.87345 -5.12786,-16.22497 -7.93553,-29.67005 -2.80767,-13.44505 -7.38601,-28.13657 -10.1741,-32.64777 -2.78808,-4.51123 -7.25356,-14.55105 -9.92327,-22.3107 -2.66972,-7.75968 -7.14826,-17.02513 -9.9523,-20.5899 -7.34661,-9.3397 -6.50819,-19.79123 2.40172,-29.93905 7.33465,-8.3537 7.50008,-9.13263 7.50342,-35.33005 0.005,-42.75509 8.09578,-78.42047 25.28565,-111.46918 13.06911,-25.126281 29.81609,-49.564421 34.87147,-50.886434 2.66171,-0.69605 4.83946,-2.659875 4.83946,-4.364052 0,-12.861733 57.7925,-41.794785 92.08383,-46.1005584 10.335,-1.297707 20.2283,-4.0353 22.7146,-6.285392 5.4714,-4.951565 73.56,-2.95878003 87.1508,2.550687 4.5096,1.828108 15.1971,4.5741684 23.75,6.1023554 40.8043,7.29069 82.7092,24.5045 90.5508,37.196725 2.75,4.451088 15.3797,18.79142 28.066,31.867408 22.6106,23.305091 28.1324,32.650231 28.17,47.674851 0.01,3.06592 1.6521,9.81592 3.6542,15 8.875,22.97991 11.3243,40.34601 11.7582,83.36789 0.4278,42.4134 0.5726,43.50605 6.5599,49.49332 6.0415,6.04148 10.5417,17.18705 10.5417,26.10848 0,2.5174 -6.2475,11.12692 -13.8834,19.1323 -7.6358,8.00537 -16.3545,19.10507 -19.375,24.66602 -3.0204,5.56093 -5.264,15.53957 -8.4777,21.30172 -3.2138,5.76212 -8.6405,15.77979 -10.3133,24.88051 -2.609,14.19353 -4.7444,27.73931 -10.7074,30.62378 -5.8443,2.82703 -7.4008,-4.86651 -6.0014,0.70917 -6.1274,20.20438 -22.6148,45.90989 -26.1864,70.87395 -3.301,26.96487 0.6296,57.01845 7.4572,57.01845 1.0483,0 10.0324,8.35097 19.9648,18.55775 9.9324,10.20675 21.5945,19.83822 25.9158,21.40322 4.3213,1.56503 14.6069,6.10723 22.8569,10.0938 23.8891,11.54375 60.251,27.44625 62.7293,27.43403 1.2489,-0.005 10.5439,4.18172 20.6557,9.30642 12.1444,6.15493 21.9032,9.35463 28.75,9.42655 32.446,0.34085 36.4012,7.72343 36.5125,68.15323 0.1024,55.625 0.1024,55.625 -374.8976,55.625 -375.00001718,0 -375.00001718,0 -375.00001718,-56.51748 z"
           id="path3136"
           inkscape:connector-curvature="0"
           sodipodi:nodetypes="ssssssccsssssssscssssssssscsssssssssccsssscsssss" />
      </g>
      <rect
         y="699.505"
         x="-1.4285747"
         height="71.428574"
         width="750.71423"
         id="rect3138"
         style="fill:#000000;fill-opacity:1;stroke:none" />
    </g>
  </g>
</svg>
